<svg width="21" height="17" viewBox="0 0 21 17" fill="none" xmlns="http://www.w3.org/2000/svg">
<circle cx="16" cy="5" r="4.5" fill="#C4C4C4" stroke="black"/>
<line x1="12.2394" y1="6.43895" x2="1.23943" y2="12.4389" stroke="black"/>
<mask id="path-3-inside-1_82_146" fill="white">
<path d="M0.436655 7.56638C-0.164061 9.18648 -0.144351 10.9715 0.491993 12.578C1.12834 14.1844 2.33635 15.4987 3.88354 16.268L4.42033 15.1884C3.13963 14.5516 2.13969 13.4637 1.61296 12.1339C1.08622 10.8042 1.0699 9.3266 1.56715 7.98556L0.436655 7.56638Z"/>
</mask>
<path d="M0.436655 7.56638C-0.164061 9.18648 -0.144351 10.9715 0.491993 12.578C1.12834 14.1844 2.33635 15.4987 3.88354 16.268L4.42033 15.1884C3.13963 14.5516 2.13969 13.4637 1.61296 12.1339C1.08622 10.8042 1.0699 9.3266 1.56715 7.98556L0.436655 7.56638Z" stroke="#D3D0C8" stroke-width="10" mask="url(#path-3-inside-1_82_146)"/>
</svg>
